# xmcd
#
# Track frame offsets:
# 150
# 11185
# 26887
# 37378
# 53243
# 66496
# 87749
# 103859
# 116404
#
# Disc length: 1733 seconds
#
# Revision: 0
# Processed by: cddbd v1.5.2PL0 Copyright (c) Steve Scherf et al.
# Submitted via: Audion 3.0.2 (http://www.panic.com/audion/)
#
DISCID=8906c309
DTITLE=George Shearing - The Shearing Spell
DYEAR=1900
DGENRE=
TTITLE0=Lullby Of Birdland
TTITLE1=Perfidia
TTITLE2=Roses Of Picardy
TTITLE3=Old Devil Moon
TTITLE4=September In The Rain
TTITLE5=Little White Lies
TTITLE6=Jumpin' With Symphony Sid
TTITLE7=I'll Remember April
TTITLE8=Mambo Caribe
EXTD=
EXTT0=
EXTT1=
EXTT2=
EXTT3=
EXTT4=
EXTT5=
EXTT6=
EXTT7=
EXTT8=
PLAYORDER=
